<mxfile host="app.diagrams.net" agent="Mozilla/5.0 (Windows NT 10.0; Win64; x64) AppleWebKit/537.36 (KHTML, like Gecko) Chrome/131.0.0.0 Safari/537.36" version="26.0.5">
  <diagram name="Page-1" id="03018318-947c-dd8e-b7a3-06fadd420f32">
    <mxGraphModel dx="3354" dy="1258" grid="1" gridSize="10" guides="1" tooltips="1" connect="1" arrows="1" fold="1" page="1" pageScale="1" pageWidth="1100" pageHeight="850" background="none" math="0" shadow="0">
      <root>
        <mxCell id="0" />
        <mxCell id="1" parent="0" />
        <mxCell id="677b7b8949515195-1" value="" style="whiteSpace=wrap;html=1;rounded=0;shadow=0;labelBackgroundColor=none;strokeColor=#000000;strokeWidth=1;fillColor=none;fontFamily=Verdana;fontSize=12;fontColor=#000000;align=center;comic=1;" parent="1" vertex="1">
          <mxGeometry x="20" y="70" width="1060" height="560" as="geometry" />
        </mxCell>
        <mxCell id="gBdz1FRmPUKY2ZFgMoxz-1" value="&lt;font style=&quot;font-size: 18px;&quot;&gt;fourthwallacademy.com/Courses/Add&lt;/font&gt;" style="html=1;strokeWidth=1;shadow=0;dashed=0;shape=mxgraph.ios7ui.url;fillColor=#e0e0e0;strokeColor=#c0c0c0;buttonText=;strokeColor2=#222222;fontColor=#222222;fontSize=8;spacingTop=2;align=center;whiteSpace=wrap;" parent="1" vertex="1">
          <mxGeometry x="25" y="20" width="1050" height="42.5" as="geometry" />
        </mxCell>
        <mxCell id="CBU3p2uWpCq7XRt16fgI-1" value="Add Course" style="text;strokeColor=none;fillColor=none;html=1;fontSize=24;fontStyle=1;verticalAlign=middle;align=center;" parent="1" vertex="1">
          <mxGeometry x="80" y="100" width="210" height="40" as="geometry" />
        </mxCell>
        <mxCell id="CBU3p2uWpCq7XRt16fgI-2" value="&lt;font style=&quot;font-size: 16px;&quot;&gt;Course Name:&amp;nbsp;&lt;/font&gt;" style="text;html=1;align=right;verticalAlign=middle;whiteSpace=wrap;rounded=0;" parent="1" vertex="1">
          <mxGeometry x="40" y="150" width="180" height="30" as="geometry" />
        </mxCell>
        <mxCell id="CBU3p2uWpCq7XRt16fgI-3" value="&lt;font style=&quot;font-size: 16px;&quot;&gt;Course Description:&amp;nbsp;&lt;/font&gt;" style="text;html=1;align=right;verticalAlign=middle;whiteSpace=wrap;rounded=0;" parent="1" vertex="1">
          <mxGeometry x="110" y="240" width="150" height="30" as="geometry" />
        </mxCell>
        <mxCell id="CBU3p2uWpCq7XRt16fgI-4" value="" style="strokeWidth=1;html=1;shadow=0;dashed=0;shape=mxgraph.ios.iTextInput;strokeColor=#444444;buttonText=;fontSize=8;whiteSpace=wrap;align=left;" parent="1" vertex="1">
          <mxGeometry x="110" y="180" width="300" height="30" as="geometry" />
        </mxCell>
        <mxCell id="CBU3p2uWpCq7XRt16fgI-5" value="" style="strokeWidth=1;html=1;shadow=0;dashed=0;shape=mxgraph.ios.iTextInput;strokeColor=#444444;buttonText=;fontSize=8;whiteSpace=wrap;align=left;" parent="1" vertex="1">
          <mxGeometry x="110" y="280" width="300" height="110" as="geometry" />
        </mxCell>
        <mxCell id="CBU3p2uWpCq7XRt16fgI-6" value="&lt;font style=&quot;font-size: 16px;&quot;&gt;Credits:&amp;nbsp;&lt;/font&gt;" style="text;html=1;align=right;verticalAlign=middle;whiteSpace=wrap;rounded=0;" parent="1" vertex="1">
          <mxGeometry x="110" y="420" width="70" height="30" as="geometry" />
        </mxCell>
        <mxCell id="CBU3p2uWpCq7XRt16fgI-7" value="" style="strokeWidth=1;html=1;shadow=0;dashed=0;shape=mxgraph.ios.iTextInput;strokeColor=#444444;buttonText=;fontSize=8;whiteSpace=wrap;align=left;" parent="1" vertex="1">
          <mxGeometry x="180" y="420" width="60" height="30" as="geometry" />
        </mxCell>
        <mxCell id="CBU3p2uWpCq7XRt16fgI-8" value="&lt;font style=&quot;font-size: 16px;&quot;&gt;Subject:&amp;nbsp;&lt;/font&gt;" style="text;html=1;align=right;verticalAlign=middle;whiteSpace=wrap;rounded=0;" parent="1" vertex="1">
          <mxGeometry x="110" y="480" width="70" height="30" as="geometry" />
        </mxCell>
        <mxCell id="CBU3p2uWpCq7XRt16fgI-9" value="- SELECT -" style="html=1;shadow=0;dashed=0;shape=mxgraph.bootstrap.rrect;rSize=5;strokeColor=none;strokeWidth=1;fillColor=#6C767D;fontColor=#ffffff;whiteSpace=wrap;align=right;verticalAlign=middle;fontStyle=0;fontSize=14;spacingRight=20;" parent="1" vertex="1">
          <mxGeometry x="180" y="480" width="140" height="30" as="geometry" />
        </mxCell>
        <mxCell id="CBU3p2uWpCq7XRt16fgI-10" value="" style="shape=triangle;direction=south;fillColor=#ffffff;strokeColor=none;perimeter=none;" parent="CBU3p2uWpCq7XRt16fgI-9" vertex="1">
          <mxGeometry x="1" y="0.5" width="10" height="5" relative="1" as="geometry">
            <mxPoint x="-17" y="-2.5" as="offset" />
          </mxGeometry>
        </mxCell>
        <mxCell id="CBU3p2uWpCq7XRt16fgI-11" value="&lt;font style=&quot;font-size: 16px;&quot;&gt;Save&lt;/font&gt;" style="rounded=1;fillColor=#0057D8;strokeColor=none;html=1;whiteSpace=wrap;fontColor=#ffffff;align=center;verticalAlign=middle;fontStyle=0;fontSize=12;sketch=0;" parent="1" vertex="1">
          <mxGeometry x="110" y="550" width="86" height="33" as="geometry" />
        </mxCell>
        <mxCell id="CBU3p2uWpCq7XRt16fgI-12" value="Go Back" style="html=1;shadow=0;dashed=0;shape=mxgraph.bootstrap.rrect;rSize=5;strokeColor=none;strokeWidth=1;fillColor=none;fontColor=#0085FC;whiteSpace=wrap;align=center;verticalAlign=middle;spacingLeft=0;fontStyle=0;fontSize=16;spacing=5;" parent="1" vertex="1">
          <mxGeometry x="220" y="546.5" width="100" height="40" as="geometry" />
        </mxCell>
      </root>
    </mxGraphModel>
  </diagram>
</mxfile>
